<?xml version="1.0" encoding="UTF-8" standalone="no"?>
<!DOCTYPE svg PUBLIC "-//W3C//DTD SVG 1.1//EN" "http://www.w3.org/Graphics/SVG/1.1/DTD/svg11.dtd">
<svg width="100%" height="100%" viewBox="0 0 1920 1080" version="1.1" xmlns="http://www.w3.org/2000/svg" xmlns:xlink="http://www.w3.org/1999/xlink" xml:space="preserve" xmlns:serif="http://www.serif.com/" style="fill-rule:evenodd;clip-rule:evenodd;stroke-linecap:round;stroke-linejoin:round;stroke-miterlimit:1.5;">
    <path d="M1354,421L960,961L547,415" style="fill:url(#_Linear1);stroke:white;stroke-width:2px;"/>
    <g transform="matrix(1.45031,0,0,1.45287,-106.378,-289.331)">
        <ellipse cx="738.25" cy="454.5" rx="237.75" ry="217.5" style="fill:url(#_Linear2);stroke:black;stroke-width:1.38px;"/>
    </g>
    <g transform="matrix(3.76755,0,0,3.44623,-981.549,-1070.92)">
        <path d="M458.206,379L424,346L415,349C409.155,349.347 406.426,345.956 405,341C403.757,333.713 407.632,328.986 416.992,327C416.978,319.11 420.623,315.337 427.678,315.399C433.48,315.277 437.421,317.694 438.364,324.199C438.758,327.999 437.698,330.968 435,333L468.617,367.617" style="fill:white;stroke:black;stroke-width:0.92px;"/>
    </g>
    <g transform="matrix(3.76755,0,0,3.44623,-981.549,-1070.92)">
        <path d="M563.589,366.206L596,334C593.539,331.058 592.28,327.849 593,324.199C593.386,318.991 596.606,315.97 603,315.399C610.256,316.36 614.166,320.03 614,327C622.208,327.992 627.293,331.959 626,342C625.643,345.21 623.749,347.6 620,349C616.201,350.086 612.141,348.36 608,346.197L574.589,379.411" style="fill:white;stroke:black;stroke-width:0.92px;"/>
    </g>
    <g transform="matrix(3.76755,0,0,3.44623,-981.549,-1070.92)">
        <path d="M547.251,479.676C552.032,494.252 551.511,507.064 546,516C538.8,526.915 528.904,532.439 516.527,533C502.267,531.408 491.75,524.753 485,513C480.359,502.094 481.156,490.343 484.466,479.879M483.794,479.561C504.794,489.613 526.5,489.388 547.5,479.561" style="fill:white;stroke:black;stroke-width:0.92px;"/>
    </g>
    <g transform="matrix(3.76755,0,0,3.44623,-981.549,-1070.92)">
        <path d="M477.823,476.383L435.387,519C438.452,522.693 439.125,526.72 438.364,530C437.103,534.199 434.442,536.689 430,537C427.575,537.724 424.486,537.457 421,535C418.177,533.858 416.987,529.676 416.992,525C414.108,524.58 411.236,523.834 408,522C404.51,519.006 404.021,513.762 404.774,509C407.159,504.346 411.141,502.707 416,503C418.826,503.014 421.234,503.866 423,506L465,466" style="fill:white;stroke:black;stroke-width:0.92px;"/>
    </g>
    <g transform="matrix(3.76755,0,0,3.44623,-981.549,-1070.92)">
        <path d="M554.177,475.972L595.1,519C592.392,524.833 591.927,529.976 595.1,534C599.498,538.286 604.471,538.581 610,535C612.439,532.905 614.049,530.131 614,526C617.835,526.024 620.974,524.917 623,522C624.92,519.853 625.864,516.73 626.2,513C625.423,507.921 622.396,505.233 618,504C613.844,503.354 610.573,504.479 608,507L566.972,465.177" style="fill:white;stroke:black;stroke-width:0.92px;"/>
    </g>
    <g transform="matrix(3.76755,0,0,3.44623,-981.549,-1070.92)">
        <path d="M448,411C452.208,407.707 461.851,405.887 473,404C497.563,402.23 523.676,402.009 551,403C566.694,404.109 578.971,406.439 585,411C585.558,431.891 581.796,448.463 572,459C564.425,469.499 555.026,476.713 544,481C535.186,485.4 526.138,486.714 515.943,486.972C504.756,487.034 494.117,485.46 485,480C476.662,476.014 468.958,470.127 462,462C454.859,454.106 450.619,444.036 449,432L448,411Z" style="fill:white;stroke:black;stroke-width:0.92px;"/>
    </g>
    <g transform="matrix(3.76755,0,0,3.44623,-981.549,-1070.92)">
        <path d="M481.75,495.206C484.64,499.206 487.901,503 493,507C499.743,512.156 507.434,514.704 515.943,515C522.53,514.494 529.646,513.924 538,509C543.282,506.287 547.301,501.805 550.374,496" style="fill:none;stroke:black;stroke-width:0.55px;"/>
    </g>
    <g transform="matrix(3.76755,0,0,3.44623,-981.549,-1070.92)">
        <path d="M501,486L493.794,507.411" style="fill:none;stroke:black;stroke-width:0.55px;"/>
    </g>
    <g transform="matrix(3.76755,0,0,3.44623,-981.549,-1070.92)">
        <path d="M515.335,486.974L515.493,515" style="fill:none;stroke:black;stroke-width:0.55px;"/>
    </g>
    <g transform="matrix(3.76755,0,0,3.44623,-981.549,-1070.92)">
        <path d="M530,486C530,486 538.525,507.269 538.292,508.73" style="fill:none;stroke:black;stroke-width:0.55px;"/>
    </g>
    <path d="M1088,609C1005.58,673.641 922.638,674.259 839,601" style="fill:none;stroke:black;stroke-width:2px;"/>
    <g transform="matrix(3.76755,0,0,3.44623,-981.549,-1070.92)">
        <path d="M585.054,411.151C585.265,415.647 585.25,420.018 584.523,424C598.493,423.081 612.782,420.779 619,411C611.724,402.621 597.024,399.29 582,397C538.333,391.843 494.667,391.665 451,397C432.805,400.215 416.653,403.899 414,411C421.915,422.22 436.365,422.785 448.531,424L448,411.151C453.79,407.423 462.535,405.19 473.132,403.897C498.803,402.612 524.793,402.261 551.167,403.027C564.468,403.649 576.564,405.526 585.054,411.151Z" style="fill:rgb(255,152,0);stroke:black;stroke-width:0.55px;"/>
    </g>
    <g transform="matrix(3.76755,0,0,3.44623,-981.549,-1070.92)">
        <path d="M581.177,393.065C537.211,382.377 494.135,382.073 452.028,393.065C455.483,381.014 461.114,374.68 471,366C480.464,357.515 492.566,351.962 507,349C511.811,348.531 517.375,348.534 524,349.199C540.222,352.31 554.404,357.262 564,367C564.395,367 581.425,386.44 581.177,393.065Z" style="fill:rgb(255,152,0);stroke:black;stroke-width:0.55px;"/>
    </g>
    <g transform="matrix(6.10603,0,0,5.87575,-975.053,-1894.6)">
        <ellipse cx="298.5" cy="395.766" rx="14.5" ry="12.766" style="stroke:black;stroke-width:0.33px;"/>
    </g>
    <g transform="matrix(6.10603,0,0,5.87575,-741.465,-1894.6)">
        <ellipse cx="298.5" cy="395.766" rx="14.5" ry="12.766" style="stroke:black;stroke-width:0.33px;"/>
    </g>
    <g transform="matrix(5.65132,0,0,6.66271,-1192.56,-2445.74)">
        <ellipse cx="381" cy="446.75" rx="5" ry="3.75" style="stroke:black;stroke-width:0.32px;"/>
    </g>
    <path d="M1208.08,283.671L1208.08,296C1044.07,279.099 881.826,279.012 721.489,297L722,283.671C883.044,246.377 1045.07,246.536 1208.08,283.671Z" style="fill:rgb(171,13,0);stroke:black;stroke-width:2px;"/>
    <g transform="matrix(1.34949,0,0,1.23439,-363.171,-91.3922)">
        <path d="M995,936C1024.84,892.415 1086.3,864.023 1179,850.637C1226.01,847.58 1273.37,848.61 1321,852.949C1311.28,871.349 1303.55,887.765 1300,900C1254.74,886.413 1214.4,883.028 1179,883C1090.56,881.995 1027.97,898.794 995,936ZM640,852.949C689.172,850.024 739.976,849.712 793,852.949C874.909,865.608 930.625,894.066 964,936C924.446,901.383 866.258,884.802 793,881C746.965,882.772 702.146,887.598 659,899L640,852.949Z" style="fill:rgb(52,30,30);stroke:black;stroke-opacity:0;stroke-width:1.55px;"/>
        <path d="M743,800L749,763C792.675,776.243 833.242,792.334 871,811C896.557,826.055 919.373,842.48 940,860C957.253,878.373 969.594,899.203 976,923C958.459,906.433 940.527,893.185 922,885C899.667,873.865 877.333,865.204 855,859C829.591,851.277 804.93,846.299 781,844C747.199,840.752 710.787,840.667 675,839L673,798L745,806C787.306,814.299 825.104,826.757 861,839L901,857C912.498,862.751 923.715,868.643 934,875C927.147,867.716 919.479,860.87 910,855C899.139,848.172 887.083,842.213 874,837C860.201,831.365 846.203,826.029 832,821C820.858,817.046 809.546,813.348 798,810L743,800ZM983,923C991.817,895.34 1006.47,871.981 1027,852.949C1043.67,837.845 1062.4,824.023 1084,812C1123.75,791.823 1165.56,775.781 1209,763L1217,800C1133.11,810.397 1066.36,836.252 1025,875C1074.17,840.528 1138.63,817.285 1218,805C1240.05,801.767 1262.72,799.768 1286,799L1285,839C1261.76,838.128 1239.39,838.406 1218,840C1136.99,846.748 1074.8,861.995 1032,886C1012.19,896.755 996.027,909.164 983,923Z" style="fill:rgb(137,137,137);stroke:black;stroke-opacity:0;stroke-width:1.55px;"/>
    </g>
    <defs>
        <linearGradient id="_Linear1" x1="0" y1="0" x2="1" y2="0" gradientUnits="userSpaceOnUse" gradientTransform="matrix(22.6053,-583,583,22.6053,992.646,897)"><stop offset="0" style="stop-color:rgb(117,213,255);stop-opacity:1"/><stop offset="0.58" style="stop-color:rgb(212,242,255);stop-opacity:1"/><stop offset="1" style="stop-color:white;stop-opacity:1"/></linearGradient>
        <linearGradient id="_Linear2" x1="0" y1="0" x2="1" y2="0" gradientUnits="userSpaceOnUse" gradientTransform="matrix(-0.325329,103.052,-103.234,-0.324754,738.575,467.77)"><stop offset="0" style="stop-color:rgb(89,177,234);stop-opacity:1"/><stop offset="1" style="stop-color:rgb(0,126,207);stop-opacity:1"/></linearGradient>
    </defs>
</svg>
