<svg version="1.2" xmlns="http://www.w3.org/2000/svg" viewBox="0 0 32 32" width="64" height="64"><defs><linearGradient id="P" gradientUnits="userSpaceOnUse"/><linearGradient id="g1" x2="1" href="#P" gradientTransform="matrix(.377,-9.717,14.126,.548,16.544,21.95)"><stop stop-color="#75d5ff"/><stop offset=".58" stop-color="#d4f2ff"/><stop offset="1" stop-color="#fff"/></linearGradient><linearGradient id="g2" x2="1" href="#P" gradientTransform="matrix(-0.008,2.495,-2.723,-0.009,16.08,13.505)"><stop stop-color="#59b1ea"/><stop offset="1" stop-color="#007ecf"/></linearGradient></defs><style>.a{fill:url(#g1);stroke:#fff;stroke-linecap:round;stroke-linejoin:round;stroke-width:0}.b{fill:url(#g2);stroke:#000;stroke-linecap:round;stroke-linejoin:round;stroke-width:0}.c{fill:#fff;stroke:#000;stroke-linecap:round;stroke-linejoin:round;stroke-width:.1}.d{fill:none;stroke:#000;stroke-linecap:round;stroke-linejoin:round;stroke-width:0}.e{fill:#ff9800;stroke:#000;stroke-linecap:round;stroke-linejoin:round;stroke-width:0}.f{stroke:#000;stroke-linecap:round;stroke-linejoin:round;stroke-width:0}.g{fill:#ab0d00;stroke:#000;stroke-linecap:round;stroke-linejoin:round;stroke-width:0}.h{fill:#341e1e;stroke:#000;stroke-linecap:round;stroke-linejoin:round;stroke-width:0}.i{fill:#898989;stroke:#000;stroke-linecap:round;stroke-linejoin:round;stroke-width:0}</style><path fill-rule="evenodd" class="a" d="m22.6 14l-6.6 9-6.9-9.1"/><path class="b" d="m16.1 18.4c-3.2 0-5.8-2.3-5.8-5.2 0-2.9 2.6-5.3 5.8-5.3 3.1 0 5.7 2.4 5.7 5.3 0 2.9-2.6 5.2-5.7 5.2z"/><path fill-rule="evenodd" class="c" d="m12.4 10.9l-2.1-1.9-0.6 0.2c-0.4 0-0.5-0.2-0.6-0.5q-0.2-0.6 0.7-0.8 0-0.6 0.7-0.6c0.4 0 0.6 0.1 0.7 0.5q0 0.3-0.2 0.5l2.1 2"/><path fill-rule="evenodd" class="c" d="m19 10.2l2.1-1.9q-0.3-0.2-0.2-0.5 0-0.5 0.6-0.5 0.7 0 0.7 0.6c0.5 0.1 0.8 0.3 0.7 0.9q0 0.3-0.3 0.4c-0.3 0.1-0.5 0-0.8-0.2l-2.1 1.9"/><path fill-rule="evenodd" class="c" d="m18 16.7q0 0 0 0 0 0 0 0h-4q0 0 0.1 0 0 0 0 0m3.8 2.1q-0.7 0.9-1.8 1-1.4-0.2-2-1.2c-0.3-0.6-0.2-1.3 0-1.9 1.3 0.6 2.6 0.6 3.9 0 0.3 0.8 0.3 1.6-0.1 2.1z"/><path fill-rule="evenodd" class="c" d="m13.6 16.5l-2.6 2.5c0.2 0.2 0.2 0.4 0.2 0.6q-0.1 0.4-0.6 0.4c-0.1 0-0.3 0-0.5-0.1-0.2-0.1-0.3-0.3-0.3-0.6q-0.2 0-0.5-0.2c-0.3-0.1-0.3-0.4-0.2-0.7 0.1-0.3 0.4-0.4 0.7-0.4q0.2 0 0.4 0.2l2.6-2.3"/><path fill-rule="evenodd" class="c" d="m18.4 16.5l2.6 2.5c-0.2 0.3-0.2 0.6 0 0.8q0.4 0.4 0.9 0.1c0.2-0.1 0.3-0.3 0.3-0.5q0.4 0 0.6-0.3 0.1-0.2 0.2-0.5c-0.1-0.3-0.3-0.4-0.6-0.5q-0.3-0.1-0.6 0.2l-2.6-2.4"/><path fill-rule="evenodd" class="c" d="m11.8 12.8c0.2-0.2 0.8-0.3 1.5-0.4q2.4-0.2 4.9-0.1c1 0.1 1.8 0.2 2.2 0.5 0 1.2-0.2 2.1-0.8 2.7q-0.8 0.9-1.8 1.3c-0.6 0.2-1.1 0.3-1.8 0.3-0.7 0-1.3-0.1-1.9-0.4q-0.8-0.3-1.4-1-0.7-0.7-0.9-1.7z"/><path fill-rule="evenodd" class="d" d="m13.9 17.6c0.2 0.2 0.4 0.4 0.7 0.7q0.6 0.4 1.4 0.4c0.5 0 0.9 0 1.4-0.3q0.5-0.3 0.8-0.8"/><path fill-rule="evenodd" class="d" d="m15.1 17.1l-0.5 1.2"/><path fill-rule="evenodd" class="d" d="m16 17.1v1.6"/><path fill-rule="evenodd" class="d" d="m16.9 17.1c0 0 0.6 1.2 0.5 1.3"/><path fill-rule="evenodd" class="d" d="m18.1 17.1c-1.3 1.1-2.7 1.1-4.1-0.1"/><path fill-rule="evenodd" class="e" d="m20.4 12.8q0 0.4-0.1 0.7c0.9 0 1.8-0.2 2.2-0.7-0.4-0.5-1.4-0.7-2.3-0.8q-4.1-0.5-8.2 0c-1.2 0.1-2.2 0.4-2.4 0.8 0.5 0.6 1.4 0.6 2.2 0.7v-0.7c0.3-0.2 0.9-0.4 1.5-0.4q2.5-0.2 5-0.1c0.8 0 1.5 0.1 2.1 0.5z"/><path fill-rule="evenodd" class="e" d="m20.1 11.7q-4.1-0.9-8.1 0c0.2-0.7 0.6-1 1.2-1.5q0.9-0.8 2.3-1 0.4 0 1 0c1.1 0.2 2 0.5 2.6 1 0 0 1 1.1 1 1.5z"/><path class="f" d="m14.1 15.4c-0.8 0-1.4-0.5-1.4-1.2 0-0.7 0.6-1.3 1.4-1.3 0.8 0 1.5 0.6 1.5 1.3 0 0.7-0.7 1.2-1.5 1.2z"/><path class="f" d="m18 15.4c-0.8 0-1.5-0.5-1.5-1.2 0-0.7 0.7-1.3 1.5-1.3 0.8 0 1.5 0.6 1.5 1.3 0 0.7-0.7 1.2-1.5 1.2z"/><path class="f" d="m16 16.3c-0.3 0-0.5-0.2-0.5-0.5 0-0.2 0.2-0.4 0.5-0.4 0.3 0 0.5 0.2 0.5 0.4 0 0.3-0.2 0.5-0.5 0.5z"/><path fill-rule="evenodd" class="g" d="m20.1 11.7v0.2q-4.1-0.4-8.1 0v-0.2q4.1-0.9 8.1 0z"/><path fill-rule="evenodd" class="h" d="m16.3 24.7q1-1.3 4.2-1.7 1.6-0.1 3.2 0c-0.3 0.4-0.4 0.7-0.5 1-1-0.3-1.9-0.4-2.7-0.4-2 0-3.4 0.4-4.2 1.1zm-8-1.7q1.7-0.1 3.5 0c1.8 0.3 3.1 0.9 3.8 1.7-0.9-0.7-2.2-1-3.8-1.1-1.1 0-2.1 0.1-3 0.4z"/><path fill-rule="evenodd" class="i" d="m11.9 22.1q0.4 0.1 0.8 0.3 0.4 0.1 0.9 0.3 0.4 0.2 0.8 0.4 0.3 0.2 0.6 0.4-0.4-0.2-0.8-0.4l-0.9-0.4c-0.8-0.2-1.6-0.5-2.6-0.6l-1.6-0.2v0.8c0.8 0.1 1.7 0.1 2.4 0.1q0.8 0.1 1.7 0.3 0.7 0.2 1.5 0.6 0.6 0.2 1.2 0.8-0.2-0.8-0.8-1.3-0.7-0.6-1.6-1-1.2-0.6-2.7-1l-0.1 0.7zm5.2 1.6q1.5-0.7 4.2-0.9 0.7-0.1 1.5-0.1v-0.8q-0.8 0-1.5 0.1-2.7 0.4-4.3 1.5c0.9-0.8 2.4-1.4 4.3-1.6l-0.2-0.7q-1.5 0.4-2.8 1-0.7 0.4-1.3 0.8-0.7 0.6-1 1.5 0.5-0.5 1.1-0.8z"/></svg>