<?xml version="1.0" encoding="UTF-8" standalone="no"?>
<!DOCTYPE svg PUBLIC "-//W3C//DTD SVG 1.1//EN" "http://www.w3.org/Graphics/SVG/1.1/DTD/svg11.dtd">
<svg width="100%" height="100%" viewBox="0 0 1099 28" version="1.1" xmlns="http://www.w3.org/2000/svg" xmlns:xlink="http://www.w3.org/1999/xlink" xml:space="preserve" xmlns:serif="http://www.serif.com/" style="fill-rule:evenodd;clip-rule:evenodd;stroke-linejoin:round;stroke-miterlimit:2;">
    <g transform="matrix(1,0,0,1,-410.5,-526.985)">
        <g transform="matrix(1,0,0,1,-0.5,289.985)">
            <path d="M411,237C417.534,243.342 423.908,247.285 430,247C437.665,246.668 443.607,243.752 448.563,239.356C449.909,238.165 451.946,238.215 453.232,239.471C457.999,244.131 464.331,246.53 472,247C479.432,246.635 485.272,243.539 490.182,238.851C491.182,237.882 492.777,237.906 493.747,238.904C498.739,243.917 505.201,246.545 513,247C520.082,246.361 526.053,243.276 531.299,238.596C532.241,237.746 533.686,237.787 534.579,238.69C540.148,244.338 546.327,246.566 553,246C560.631,245.765 566.621,243.184 571.611,239.175C572.395,238.533 573.54,238.6 574.244,239.33C578.479,243.566 584.492,246.531 594,247C602.727,246.699 608.367,243.549 612.432,238.945C612.838,238.471 613.422,238.186 614.045,238.16C614.669,238.134 615.275,238.368 615.719,238.807C621.605,244.613 628.014,247.443 635,247C643.079,246.28 649.079,243.481 653.348,238.951C653.777,238.476 654.382,238.199 655.022,238.184C655.661,238.17 656.279,238.419 656.729,238.874C661.729,243.912 667.388,247.327 675,246C684.065,245.825 689.144,242.584 693.323,238.651C694.274,237.744 695.759,237.71 696.75,238.572C702.053,243.133 708.058,246.588 716,247C723.946,245.643 729.961,242.355 735.263,238.354C736.237,237.611 737.613,237.719 738.461,238.603C742.92,243.258 748.35,246.679 757,246C764.903,245.96 770.334,242.898 774.971,238.865C776.115,237.857 777.841,237.9 778.934,238.963C784.814,244.683 790.998,248.97 798,247C805.329,246.958 811.484,244.09 816.138,239.177C817.195,238.057 818.959,238.002 820.084,239.055C825.234,243.835 831.085,246.8 838,247C846.849,246.617 852.221,243.293 856.336,238.905C856.775,238.425 857.388,238.14 858.038,238.115C858.688,238.089 859.322,238.324 859.797,238.768C865.131,243.647 871.536,246.382 879,247C886.713,246.173 892.354,243.274 897.145,239.526C898.203,238.684 899.714,238.731 900.718,239.635C906.297,244.639 912.562,247.579 920,247C927.794,246.322 933.622,243.677 937.86,239.443C939.043,238.201 941.006,238.145 942.259,239.317C947.557,244.235 953.324,247.323 960,247C969.483,246.724 974.974,243.07 979.478,238.581C980.32,237.732 981.685,237.71 982.553,238.532C988.01,243.686 993.799,246.684 1000,247C1008.82,247.006 1014.74,243.832 1019.86,239.774C1021.12,238.784 1022.89,238.8 1024.13,239.813C1029.63,244.339 1035.38,247.713 1042,247C1050.07,246.833 1055.95,244.284 1060.23,239.984C1061.22,238.954 1062.84,238.892 1063.9,239.844C1070.32,245.587 1076.32,247.749 1082,247C1091.18,247.316 1097.31,244.578 1101.49,239.89C1102.35,238.918 1103.84,238.826 1104.81,239.683C1110.69,244.861 1116.76,247.26 1123,247C1131.76,246.869 1137.08,243.559 1141.18,239.127C1142.2,238.025 1143.92,237.957 1145.03,238.974C1151.54,244.958 1157.85,247.502 1164,247C1172.08,246.734 1178.09,244.402 1182.19,240.162C1183.25,239.063 1184.98,238.989 1186.13,239.993C1192.06,245.189 1198.37,247.399 1205,247C1212.84,246.959 1218.49,243.755 1223.11,239.062C1224.18,237.975 1225.92,237.929 1227.05,238.958C1233.04,244.425 1239.02,247.826 1245,247C1253.33,247.582 1258.56,244.146 1263.12,239.841C1264.19,238.842 1265.84,238.81 1266.94,239.767C1272.5,244.577 1278.59,247.773 1286,247C1294.75,247.526 1300.34,243.623 1305.26,238.776C1305.71,238.336 1306.32,238.103 1306.94,238.131C1307.57,238.16 1308.16,238.448 1308.56,238.927C1312.45,243.383 1317.84,246.462 1326,247C1334.6,247.81 1340.48,244.547 1345.34,239.744C1346.32,238.776 1347.85,238.667 1348.96,239.487C1354.56,243.642 1360.47,247.09 1368,247C1376.08,247.542 1381.61,243.922 1386.55,239.369C1387.38,238.61 1388.64,238.595 1389.48,239.336C1394.69,243.931 1400.22,247.494 1407,247C1416.32,248.484 1421.79,243.792 1427.07,238.816C1428.15,237.815 1429.82,237.826 1430.88,238.84C1436.01,243.751 1441.32,247.928 1448,247C1456.3,247.21 1461.86,243.638 1467.04,239.564C1468.19,238.67 1469.8,238.69 1470.92,239.612C1476.55,244.261 1482.39,248.278 1490,247C1497.86,246.781 1504.35,242.963 1510,237L1510,252C1502.93,259.001 1496.19,262.951 1490,262C1482.25,262.686 1476.1,259.084 1470.63,253.68C1470.2,253.254 1469.62,253.019 1469.01,253.026C1468.4,253.032 1467.83,253.281 1467.41,253.717C1462.49,258.736 1456.48,261.727 1449,262C1442.29,262.333 1435.88,259.875 1429.96,253.134C1429.7,252.844 1429.34,252.67 1428.96,252.649C1428.57,252.628 1428.19,252.762 1427.91,253.021C1420.71,259.571 1413.98,263.139 1408,262C1398.82,261.525 1393.28,258.196 1389.31,253.625C1388.99,253.247 1388.52,253.033 1388.03,253.042C1387.53,253.051 1387.07,253.282 1386.77,253.671C1381.83,259.932 1375.34,262.922 1367,262C1357.77,262.136 1352.07,258.747 1348.13,253.593C1347.85,253.217 1347.42,252.986 1346.95,252.961C1346.48,252.936 1346.03,253.121 1345.71,253.466C1341.05,258.412 1335.04,261.555 1327,262C1320.34,262.595 1314.33,259.548 1308.78,253.907C1307.74,252.85 1306.07,252.738 1304.9,253.644C1298.91,258.327 1292.76,263.109 1286,264C1277.88,262.182 1272.88,259.195 1267.6,253.717C1267.17,253.284 1266.6,253.041 1265.99,253.047C1265.39,253.052 1264.81,253.305 1264.4,253.746C1259.03,259.496 1253.07,265.122 1245,264C1238.97,266.001 1232.93,259.898 1226.9,253.142C1226.44,252.63 1225.78,252.346 1225.09,252.366C1224.4,252.385 1223.76,252.706 1223.33,253.244C1218.82,258.889 1213.15,262.555 1205,262C1196.7,262.757 1191.11,258.994 1186.15,254.181C1184.95,253.018 1183.04,253.01 1181.82,254.162C1176.72,258.943 1170.82,261.983 1164,263C1157.83,262.829 1151.67,259.868 1145.5,254.383C1144.64,253.616 1143.34,253.599 1142.46,254.342C1135.79,259.956 1129.28,262.967 1123,262C1115.83,263.107 1109.85,259.468 1104.27,254.228C1103.56,253.555 1102.44,253.548 1101.72,254.214C1095.33,260.088 1088.79,263.221 1082,262C1073.11,261.919 1068.09,257.957 1063.54,253.529C1062.7,252.705 1061.34,252.718 1060.51,253.56C1055.66,258.481 1050.17,262.584 1041,262C1033.71,262.495 1028.3,258.963 1023.62,253.856C1023.18,253.385 1022.58,253.106 1021.94,253.081C1021.3,253.056 1020.68,253.287 1020.21,253.722C1014.13,259.388 1007.85,263.26 1001,262C992.889,262.374 987.373,258.71 982.656,253.803C982.215,253.345 981.61,253.082 980.975,253.071C980.339,253.061 979.726,253.303 979.269,253.746C973.885,258.915 967.592,261.972 960,262C952.434,262.529 946.589,258.754 941.362,253.434C941.005,253.069 940.516,252.865 940.005,252.868C939.494,252.871 939.007,253.081 938.654,253.451C933.719,258.563 927.824,262.332 919,262C912.399,263.398 906.346,259.585 900.521,253.612C900.124,253.205 899.577,252.977 899.008,252.982C898.439,252.986 897.896,253.223 897.505,253.636C892.214,259.207 886.177,262.699 879,263C870.798,262.221 864.727,258.511 859.56,253.559C858.689,252.714 857.305,252.712 856.432,253.555C851.227,258.562 845.531,262.422 838,262C829.698,262.016 823.761,258.615 818.788,253.822C818.333,253.377 817.71,253.145 817.075,253.184C816.439,253.222 815.849,253.527 815.45,254.024C811.491,258.873 806.357,262.548 798,263C789.766,262.525 783.783,258.674 778.6,253.621C778.179,253.207 777.609,252.978 777.018,252.986C776.426,252.994 775.863,253.238 775.453,253.664C770.309,258.958 764.403,262.601 757,263C749.422,263.211 743.238,259.704 737.854,254.061C737.362,253.545 736.683,253.248 735.97,253.235C735.256,253.222 734.568,253.496 734.057,253.994C728.964,258.979 723.319,262.583 716,262C709.04,261.986 703.141,258.524 697.694,253.593C696.707,252.695 695.22,252.625 694.152,253.425C686.323,259.318 679.736,262.895 675,263C666.178,262.32 660.443,258.296 656.188,252.667C655.894,252.27 655.437,252.026 654.943,252.002C654.45,251.977 653.971,252.175 653.639,252.54C648.698,257.936 643.06,262.285 635,263C627.213,263.153 621.116,259.504 616.319,252.93C615.995,252.484 615.486,252.21 614.935,252.185C614.385,252.161 613.853,252.388 613.491,252.803C608.614,258.31 602.655,262.408 594,263C586.797,262.639 580.722,259.269 575.671,253.169C575.231,252.634 574.589,252.306 573.898,252.261C573.207,252.216 572.528,252.46 572.023,252.933C565.35,259.167 558.889,263.442 553,262C546.196,263.918 539.688,259.326 533.285,252.417C532.955,252.061 532.489,251.861 532.004,251.866C531.518,251.871 531.057,252.082 530.735,252.445C526.167,257.605 521.187,262.262 513,263C504.432,262.985 498.351,258.992 493.518,253.001C493.127,252.516 492.548,252.221 491.926,252.191C491.303,252.162 490.698,252.4 490.263,252.846C484.174,259.082 478.087,263.011 472,262C462.453,262.676 456.816,259.212 453.321,253.48C452.976,252.916 452.395,252.54 451.74,252.455C451.085,252.37 450.427,252.586 449.95,253.043C443.792,258.947 437.529,263.092 431,263C423.368,263.437 416.865,259.073 411,252L411,237Z" style="fill:rgb(1,162,220);"/>
        </g>
    </g>
</svg>
